<?xml version="1.0" standalone="no"?><!DOCTYPE svg PUBLIC "-//W3C//DTD SVG 1.1//EN" "http://www.w3.org/Graphics/SVG/1.1/DTD/svg11.dtd"><svg t="1689344998525" class="icon" viewBox="0 0 1024 1024" version="1.1" xmlns="http://www.w3.org/2000/svg" p-id="11725" xmlns:xlink="http://www.w3.org/1999/xlink" width="900" height="900"><path d="M928 864H128V128c0-17.6-14.4-32-32-32s-32 14.4-32 32v768c0 17.6 14.4 32 32 32h832c17.6 0 32-14.4 32-32s-14.4-32-32-32z" p-id="11726"></path><path d="M269.399 428s9.345-12 25.957-12c12.459 0 20.766 7 20.766 7l141.207 136 243.997-323s9.345-12 24.919-12c18.689 0 26.995 12 26.995 12l199.351 256s19.727 23-5.191 45c-26.995 19-46.723-5-46.723-5L727.282 310 489.515 625s-8.306 15-28.034 15c-17.651 0-28.034-14-28.034-14L297.432 495l-145.36 168s-18.689 19-43.608 2c-24.919-22-5.191-45-5.191-45l166.126-192z" p-id="11727"></path><path d="M96 896v-96l199.265-224 177.47 158 253.233-336 233.513 299L960 896.5z" p-id="11728"></path></svg>