<?xml version="1.0" standalone="no"?><!DOCTYPE svg PUBLIC "-//W3C//DTD SVG 1.1//EN" "http://www.w3.org/Graphics/SVG/1.1/DTD/svg11.dtd"><svg t="1689343198166" class="icon" viewBox="0 0 1024 1024" version="1.1" xmlns="http://www.w3.org/2000/svg" p-id="1168" width="300" height="300" xmlns:xlink="http://www.w3.org/1999/xlink"><path d="M922.453333 477.735385c-9.793641 156.01559-106.404103 288.479179-242.070974 349.669743a169.708308 169.708308 0 0 1-338.944-12.235487 169.708308 169.708308 0 0 1 320.853333-77.246359 323.990974 323.990974 0 0 0 169.091282-237.974974 217.23241 217.23241 0 0 0 91.070359-22.226052zM195.977846 112.114872a169.708308 169.708308 0 1 1-8.664615 339.180307v0.22318c0 106.811077 51.725128 201.557333 131.505231 260.542359a219.424821 219.424821 0 0 0-25.45559 89.403077c-116.709744-72.769641-194.349949-202.305641-194.349949-349.945436 0-9.977436 0.36759-19.876103 1.050256-29.696A169.708308 169.708308 0 0 1 195.964718 112.114872zM511.159795 39.384615c94.470564 0 181.523692 31.783385 251.037538 85.267693a169.708308 169.708308 0 1 1-72.638359 56.648205 321.824821 321.824821 0 0 0-178.412307-53.602462A322.297436 322.297436 0 0 0 375.269744 157.538462a218.689641 218.689641 0 0 0-68.699898-63.829334A410.098872 410.098872 0 0 1 511.146667 39.384615z" p-id="1169"></path></svg>